<svg xmlns="http://www.w3.org/2000/svg" xmlns:xlink="http://www.w3.org/1999/xlink" enable-background="new 0 0 64 64" viewBox="0 0 64 64"><defs><path id="a" d="M41.72,55.39l4.21,2.29c-0.24-0.13-0.52-0.18-0.82-0.14l-4.21-2.29
					C41.2,55.21,41.48,55.26,41.72,55.39z" enable-background="new"/></defs><clipPath id="b"><use overflow="visible" xlink:href="#a"/></clipPath><g clip-path="url(#b)"><path fill="#848080" d="M45.11,57.54l-4.21-2.29c0.19-0.03,0.37-0.02,0.53,0.03l4.21,2.29C45.48,57.53,45.3,57.52,45.11,57.54"/><path fill="#807d7d" d="M45.65,57.57l-4.21-2.29c0.08,0.02,0.17,0.05,0.24,0.09l4.21,2.29C45.81,57.62,45.73,57.59,45.65,57.57"/><path fill="#7c7979" d="M45.89,57.66l-4.21-2.29c0.02,0.01,0.03,0.02,0.05,0.02l4.21,2.29C45.92,57.68,45.9,57.67,45.89,57.66"/></g><polygon fill="#8d8888" points="22.99 60.65 18.78 58.36 40.9 55.25 45.11 57.54"/><g><defs><path id="c" d="M22.16,63.84l-4.21-2.29c-0.43-0.23-0.71-0.71-0.71-1.3c0-0.93,0.69-1.77,1.54-1.89
					l4.21,2.29c-0.85,0.12-1.54,0.96-1.54,1.89C21.45,63.13,21.73,63.61,22.16,63.84z" enable-background="new"/></defs><clipPath id="d"><use overflow="visible" xlink:href="#c"/></clipPath><g clip-path="url(#d)"><path fill="#686565" d="M22.16,63.84l-4.21-2.29c-0.43-0.23-0.71-0.71-0.71-1.3c0-0.23,0.04-0.45,0.12-0.66l4.21,2.29
					c-0.08,0.21-0.12,0.43-0.12,0.66C21.45,63.13,21.73,63.61,22.16,63.84"/><path fill="#6c6969" d="M21.57,61.88l-4.21-2.29c0.03-0.09,0.07-0.18,0.12-0.26l4.21,2.29C21.64,61.7,21.6,61.79,21.57,61.88"/><path fill="#706d6d" d="M21.69,61.62l-4.21-2.29c0.04-0.07,0.08-0.14,0.13-0.2l4.21,2.29C21.77,61.48,21.72,61.55,21.69,61.62"/><path fill="#747171" d="M21.81,61.41l-4.21-2.29c0.04-0.06,0.09-0.12,0.14-0.18l4.21,2.29C21.9,61.29,21.85,61.35,21.81,61.41"/><path fill="#787575" d="M21.95,61.24l-4.21-2.29c0.05-0.06,0.1-0.11,0.16-0.16l4.21,2.29C22.05,61.13,22,61.18,21.95,61.24"/><path fill="#7c7979" d="M22.11,61.08l-4.21-2.29c0.06-0.05,0.12-0.1,0.19-0.15l4.21,2.29C22.23,60.98,22.17,61.03,22.11,61.08"/><path fill="#807d7d" d="M22.29,60.93l-4.21-2.29c0.08-0.06,0.16-0.1,0.25-0.14l4.21,2.29C22.45,60.83,22.37,60.88,22.29,60.93"/><path fill="#848080" d="M22.54,60.79l-4.21-2.29c0.14-0.07,0.29-0.11,0.45-0.14l4.21,2.29C22.84,60.67,22.68,60.72,22.54,60.79"/></g></g><path fill="#aea9a9" d="M45.11,57.54c0.85-0.12,1.54,0.53,1.54,1.45c0,0.92-0.69,1.76-1.54,1.88l-22.12,3.11
				c-0.85,0.12-1.54-0.53-1.54-1.45c0-0.93,0.69-1.77,1.54-1.89L45.11,57.54z"/><g><polygon fill="#316356" points="25.89 60.25 21.67 57.95 23.84 52.28 28.05 54.57"/><polygon fill="#3b7c6c" points="28.05 54.57 23.84 52.28 35.86 50.59 40.07 52.88"/><polygon fill="#4a9984" points="40.07 52.88 42.22 57.95 25.89 60.25 28.05 54.57"/></g><g><defs><path id="e" d="M28.99,48.97c0.25,0.14,0.55,0.19,0.87,0.15l4.21,2.29c-0.32,0.04-0.62-0.01-0.87-0.15
					C31.94,50.58,30.25,49.66,28.99,48.97z" enable-background="new"/></defs><clipPath id="f"><use overflow="visible" xlink:href="#e"/></clipPath><g clip-path="url(#f)"><path fill="#7c7979" d="M33.2,51.27l-4.21-2.29c0.02,0.01,0.03,0.02,0.05,0.03l4.21,2.29C33.24,51.28,33.22,51.28,33.2,51.27"/><path fill="#807d7d" d="M33.25,51.29L29.04,49c0.08,0.04,0.17,0.07,0.26,0.09l4.21,2.29C33.42,51.36,33.33,51.33,33.25,51.29"/><path fill="#848080" d="M33.51,51.39L29.3,49.1c0.17,0.04,0.36,0.06,0.56,0.03l4.21,2.29C33.87,51.44,33.68,51.43,33.51,51.39"/></g><defs><path id="g" d="M31.47,47.15c0-0.62-0.3-1.12-0.75-1.37l4.21,2.29c0.45,0.25,0.75,0.75,0.75,1.37
					c0,0.97-0.73,1.85-1.62,1.98l-4.21-2.29C30.74,49,31.47,48.11,31.47,47.15z" enable-background="new"/></defs><clipPath id="h"><use overflow="visible" xlink:href="#g"/></clipPath><g clip-path="url(#h)"><path fill="#848080" d="M34.07,51.42l-4.21-2.29c0.16-0.02,0.32-0.07,0.47-0.14l4.21,2.29C34.39,51.35,34.23,51.39,34.07,51.42"/><path fill="#807d7d" d="M34.54,51.28l-4.21-2.29c0.09-0.04,0.18-0.09,0.26-0.15l4.21,2.29C34.72,51.18,34.63,51.23,34.54,51.28"/><path fill="#7c7979" d="M34.8,51.12l-4.21-2.29c0.07-0.05,0.13-0.1,0.2-0.15L35,50.97C34.93,51.03,34.87,51.08,34.8,51.12"/><path fill="#787575" d="M35,50.97l-4.21-2.29c0.06-0.05,0.11-0.11,0.17-0.17l4.21,2.29C35.11,50.86,35.05,50.92,35,50.97"/><path fill="#747171" d="M35.16,50.8l-4.21-2.29c0.05-0.06,0.1-0.12,0.15-0.19l4.21,2.29C35.26,50.68,35.21,50.74,35.16,50.8"/><path fill="#706d6d" d="M35.31,50.62l-4.21-2.29c0.05-0.07,0.09-0.14,0.13-0.21l4.21,2.29C35.4,50.48,35.36,50.55,35.31,50.62"/><path fill="#6c6969" d="M35.44,50.4l-4.21-2.29c0.05-0.09,0.09-0.18,0.12-0.27l4.21,2.29C35.53,50.22,35.49,50.32,35.44,50.4"/><path fill="#686565" d="M35.56,50.13l-4.21-2.29c0.08-0.22,0.12-0.45,0.13-0.69c0-0.62-0.3-1.12-0.75-1.37l4.21,2.29
					c0.45,0.25,0.75,0.75,0.75,1.37C35.69,49.68,35.64,49.91,35.56,50.13"/></g><defs><path id="i" d="M30.72,45.78l4.21,2.29c-0.25-0.14-0.54-0.19-0.86-0.15l-4.21-2.29
					C30.18,45.59,30.47,45.64,30.72,45.78z" enable-background="new"/></defs><clipPath id="j"><use overflow="visible" xlink:href="#i"/></clipPath><g clip-path="url(#j)"><path fill="#46545a" d="M34.08,47.92l-4.21-2.29c0.19-0.03,0.38-0.02,0.55,0.03l4.21,2.29C34.46,47.91,34.27,47.9,34.08,47.92"/><path fill="#445157" d="M34.63,47.95l-4.21-2.29c0.09,0.02,0.17,0.05,0.26,0.09l4.21,2.29C34.81,48.01,34.72,47.97,34.63,47.95"/><path fill="#404f55" d="M34.89,48.05l-4.21-2.29c0.02,0.01,0.03,0.02,0.05,0.03l4.21,2.29C34.92,48.06,34.9,48.05,34.89,48.05"/></g><g><defs><path id="k" d="M33.2,51.27l-4.21-2.29c-0.45-0.25-0.75-0.75-0.75-1.37c0-0.96,0.73-1.84,1.63-1.97
					l4.21,2.29c-0.9,0.13-1.62,1.01-1.63,1.97C32.45,50.52,32.75,51.02,33.2,51.27z" enable-background="new"/></defs><clipPath id="l"><use overflow="visible" xlink:href="#k"/></clipPath><g clip-path="url(#l)"><path fill="#374247" d="M33.2,51.27l-4.21-2.29c-0.45-0.25-0.75-0.75-0.75-1.37c0-0.24,0.04-0.47,0.12-0.68l4.21,2.29
					c-0.08,0.22-0.12,0.45-0.12,0.68C32.45,50.52,32.75,51.02,33.2,51.27"/><path fill="#39454a" d="M32.58,49.21l-4.21-2.29c0.03-0.09,0.08-0.18,0.12-0.27l4.21,2.29C32.65,49.03,32.61,49.12,32.58,49.21"/><path fill="#3b474d" d="M32.7,48.94l-4.21-2.29c0.04-0.07,0.08-0.15,0.13-0.21l4.21,2.29C32.78,48.79,32.74,48.87,32.7,48.94"/><path fill="#3d4a4f" d="M32.83,48.73l-4.21-2.29c0.05-0.06,0.09-0.13,0.15-0.19l4.21,2.29C32.92,48.6,32.88,48.66,32.83,48.73"/><path fill="#3f4c52" d="M32.98,48.54l-4.21-2.29c0.05-0.06,0.11-0.12,0.17-0.17l4.21,2.29C33.08,48.43,33.03,48.48,32.98,48.54"/><path fill="#404f55" d="M33.14,48.37l-4.21-2.29c0.06-0.06,0.13-0.11,0.2-0.16l4.21,2.29C33.27,48.27,33.2,48.32,33.14,48.37"/><path fill="#445157" d="M33.34,48.22l-4.21-2.29c0.08-0.06,0.17-0.11,0.26-0.15l4.21,2.29C33.51,48.11,33.42,48.16,33.34,48.22"/><path fill="#46545a" d="M33.6,48.07l-4.21-2.29c0.15-0.07,0.31-0.12,0.48-0.14l4.21,2.29C33.91,47.95,33.75,48,33.6,48.07"/></g></g><path fill="#5c6e76" d="M34.08,47.92c0.89-0.12,1.61,0.56,1.61,1.52c0,0.97-0.73,1.85-1.62,1.98c-0.9,0.13-1.62-0.56-1.62-1.52
				C32.45,48.93,33.18,48.05,34.08,47.92z"/><g><defs><path id="m" d="M8.9,56.85l-4.21-2.29c-0.7-0.38-1.16-1.16-1.16-2.12l4.21,2.29
					C7.74,55.69,8.2,56.47,8.9,56.85z" enable-background="new"/></defs><clipPath id="n"><use overflow="visible" xlink:href="#m"/></clipPath><g clip-path="url(#n)"><path fill="#686565" d="M8.9,56.85l-4.21-2.29c-0.7-0.38-1.16-1.16-1.16-2.12l4.21,2.29C7.74,55.69,8.2,56.47,8.9,56.85"/></g></g><polygon fill="#8d8888" points="7.75 49.31 3.53 47.01 56.19 39.61 60.41 41.91"/><path fill="#aea9a9" d="M7.75,49.31l52.66-7.4l-0.01,5.42c0,1.49-1.12,2.86-2.51,3.05l-17.82,2.5l-12.02,1.69l-17.82,2.5
				c-1.38,0.19-2.5-0.86-2.5-2.35L7.75,49.31z M34.07,51.42c0.89-0.12,1.62-1.01,1.62-1.98c0-0.96-0.72-1.64-1.61-1.52
				c-0.9,0.13-1.62,1.01-1.63,1.97C32.45,50.86,33.17,51.54,34.07,51.42"/><polygon fill="#666464" points="7.74 54.73 3.52 52.43 3.53 47.01 7.75 49.31"/></g><g><defs><path id="o" d="M56.76,39.29L52.54,37c0.31-0.04,0.57-0.36,0.57-0.7l4.21,2.29
					C57.33,38.93,57.07,39.25,56.76,39.29z" enable-background="new"/></defs><clipPath id="p"><use overflow="visible" xlink:href="#o"/></clipPath><g clip-path="url(#p)"><path fill="#36484c" d="M56.76,39.29L52.54,37c0.06-0.01,0.11-0.02,0.16-0.05l4.21,2.29C56.87,39.27,56.81,39.29,56.76,39.29"/><path fill="#34464a" d="M56.92,39.25l-4.21-2.29c0.03-0.02,0.06-0.03,0.09-0.05l4.21,2.29C56.98,39.21,56.95,39.23,56.92,39.25"/><path fill="#334448" d="M57.01,39.19L52.8,36.9c0.02-0.02,0.05-0.04,0.07-0.06l4.21,2.29C57.06,39.16,57.04,39.17,57.01,39.19"/><path fill="#314245" d="M57.08,39.14l-4.21-2.29c0.02-0.02,0.04-0.04,0.06-0.06l4.21,2.29C57.12,39.1,57.1,39.12,57.08,39.14"/><path fill="#2f4043" d="M57.14,39.08l-4.21-2.29c0.02-0.02,0.04-0.04,0.05-0.07l4.21,2.29C57.18,39.03,57.16,39.06,57.14,39.08"/><path fill="#2e3d41" d="M57.19,39.01l-4.21-2.29c0.02-0.02,0.03-0.05,0.05-0.08l4.21,2.29C57.23,38.96,57.21,38.99,57.19,39.01"/><path fill="#2c3b3f" d="M57.24,38.93l-4.21-2.29c0.02-0.03,0.03-0.06,0.04-0.1l4.21,2.29C57.27,38.87,57.26,38.9,57.24,38.93"/><path fill="#2b393c" d="M57.28,38.84l-4.21-2.29c0.03-0.08,0.04-0.16,0.04-0.24l4.21,2.29C57.33,38.68,57.31,38.76,57.28,38.84"/></g><defs><path id="q" d="M45.48,31.57l4.21,2.29c0.19,0.1,0.31,0.29,0.31,0.52c0,0.39-0.35,0.75-0.77,0.81
					l-4.21-2.29c0.42-0.06,0.77-0.42,0.77-0.81C45.79,31.86,45.67,31.67,45.48,31.57z" enable-background="new"/></defs><clipPath id="r"><use overflow="visible" xlink:href="#q"/></clipPath><g clip-path="url(#r)"><path fill="#9d9fa2" d="M49.23,35.19l-4.21-2.29c0.09-0.01,0.18-0.04,0.26-0.08l4.21,2.29C49.41,35.15,49.33,35.18,49.23,35.19"/><path fill="#999b9d" d="M49.5,35.11l-4.21-2.29c0.05-0.02,0.09-0.05,0.14-0.08l4.21,2.29C49.59,35.06,49.54,35.09,49.5,35.11"/><path fill="#949798" d="M49.63,35.03l-4.21-2.29c0.03-0.02,0.07-0.05,0.1-0.08l4.21,2.29C49.7,34.98,49.67,35.01,49.63,35.03"/><path fill="#8f9393" d="M49.73,34.96l-4.21-2.29c0.03-0.02,0.05-0.05,0.07-0.08l4.21,2.29C49.78,34.91,49.75,34.93,49.73,34.96"/><path fill="#8c8e8e" d="M49.8,34.88l-4.21-2.29c0.02-0.03,0.04-0.05,0.06-0.08l4.21,2.29C49.84,34.83,49.82,34.86,49.8,34.88"/><path fill="#868889" d="M49.86,34.8l-4.21-2.29c0.02-0.03,0.04-0.06,0.05-0.08l4.21,2.29C49.9,34.75,49.88,34.78,49.86,34.8"/><path fill="#818484" d="M49.92,34.72l-4.21-2.29c0.02-0.03,0.03-0.07,0.05-0.1l4.21,2.29C49.95,34.65,49.93,34.69,49.92,34.72"/><path fill="#7d7f80" d="M49.96,34.62l-4.21-2.29c0.03-0.08,0.04-0.16,0.04-0.24c0-0.23-0.12-0.42-0.31-0.52l4.21,2.29
					c0.19,0.1,0.31,0.29,0.31,0.52C50.01,34.46,49.99,34.54,49.96,34.62"/></g><defs><path id="s" d="M45.48,31.57l4.21,2.29c-0.13-0.07-0.29-0.1-0.46-0.08l-4.21-2.29
					C45.19,31.47,45.35,31.5,45.48,31.57z" enable-background="new"/></defs><clipPath id="t"><use overflow="visible" xlink:href="#s"/></clipPath><g clip-path="url(#t)"><path fill="#387465" d="M49.24,33.78l-4.21-2.29c0.11-0.02,0.21-0.01,0.3,0.02l4.21,2.29C49.45,33.77,49.34,33.77,49.24,33.78"/><path fill="#367162" d="M49.54,33.8l-4.21-2.29c0.05,0.01,0.09,0.03,0.13,0.05l4.21,2.29C49.63,33.83,49.59,33.81,49.54,33.8"/><path fill="#356e5f" d="M49.67,33.85l-4.21-2.29c0.01,0,0.02,0.01,0.02,0.01l4.21,2.29C49.69,33.85,49.68,33.85,49.67,33.85"/></g><defs><path id="u" d="M45.97,31.27l-4.21-2.29c0.24-0.03,0.44-0.28,0.44-0.54l4.21,2.29
					C46.41,30.99,46.21,31.23,45.97,31.27z" enable-background="new"/></defs><clipPath id="v"><use overflow="visible" xlink:href="#u"/></clipPath><g clip-path="url(#v)"><path fill="#9d9fa2" d="M45.97,31.27l-4.21-2.29c0.04-0.01,0.09-0.02,0.13-0.04l4.21,2.29C46.06,31.25,46.01,31.26,45.97,31.27"/><path fill="#999b9d" d="M46.1,31.23l-4.21-2.29c0.02-0.01,0.05-0.02,0.07-0.04l4.21,2.29C46.14,31.21,46.12,31.22,46.1,31.23"/><path fill="#949798" d="M46.17,31.19l-4.21-2.29c0.02-0.01,0.04-0.03,0.05-0.04l4.21,2.29C46.2,31.16,46.18,31.18,46.17,31.19"/><path fill="#8f9393" d="M46.22,31.15L42,28.86c0.02-0.01,0.03-0.03,0.04-0.04l4.21,2.29C46.25,31.12,46.23,31.14,46.22,31.15"/><path fill="#8c8e8e" d="M46.26,31.1l-4.21-2.29c0.01-0.02,0.03-0.03,0.04-0.05l4.21,2.29C46.29,31.07,46.28,31.09,46.26,31.1"/><path fill="#868889" d="M46.3,31.05l-4.21-2.29c0.01-0.02,0.03-0.04,0.04-0.06L46.34,31C46.33,31.02,46.31,31.04,46.3,31.05"/><path fill="#818484" d="M46.34,31l-4.21-2.29c0.01-0.02,0.02-0.05,0.03-0.07l4.21,2.29C46.36,30.95,46.35,30.97,46.34,31"/><path fill="#7d7f80" d="M46.37,30.92l-4.21-2.29c0.02-0.06,0.03-0.13,0.03-0.19l4.21,2.29C46.41,30.79,46.39,30.86,46.37,30.92"/></g><polygon fill="#abadad" points="43.87 31.56 39.66 29.27 41.75 28.98 45.97 31.27"/><defs><path id="w" d="M43.64,31.52l-4.21-2.29c0.07,0.04,0.15,0.05,0.24,0.04l4.21,2.29
					C43.79,31.58,43.7,31.56,43.64,31.52z" enable-background="new"/></defs><clipPath id="x"><use overflow="visible" xlink:href="#w"/></clipPath><g clip-path="url(#x)"><path fill="#949798" d="M43.64,31.52l-4.21-2.29c0,0,0.01,0,0.01,0.01l4.21,2.29C43.65,31.53,43.64,31.53,43.64,31.52"/><path fill="#999b9d" d="M43.65,31.53l-4.21-2.29c0.02,0.01,0.05,0.02,0.07,0.03l4.21,2.29C43.7,31.55,43.67,31.54,43.65,31.53"/><path fill="#9d9fa2" d="M43.72,31.56l-4.21-2.29c0.05,0.01,0.1,0.02,0.15,0.01l4.21,2.29C43.82,31.57,43.77,31.57,43.72,31.56"/></g><polygon fill="#29373a" points="57.33 38.6 53.11 36.31 53.17 3.85 57.39 6.15"/><defs><path id="y" d="M43.64,31.52l-4.21-2.29c-0.12-0.07-0.21-0.21-0.21-0.38l4.21,2.29
					C43.43,31.32,43.51,31.45,43.64,31.52z" enable-background="new"/></defs><clipPath id="z"><use overflow="visible" xlink:href="#y"/></clipPath><g clip-path="url(#z)"><path fill="#837146" d="M43.64,31.52l-4.21-2.29c-0.12-0.07-0.21-0.21-0.21-0.38l4.21,2.29C43.43,31.32,43.51,31.45,43.64,31.52"/></g><defs><path id="A" d="M52.91,3.37l4.21,2.29c0.16,0.09,0.26,0.26,0.26,0.48l-4.21-2.29
					C53.17,3.63,53.07,3.46,52.91,3.37z" enable-background="new"/></defs><clipPath id="B"><use overflow="visible" xlink:href="#A"/></clipPath><g clip-path="url(#B)"><path fill="#2b393c" d="M57.39,6.15l-4.21-2.29c0-0.22-0.11-0.4-0.26-0.48l4.21,2.29C57.28,5.75,57.39,5.93,57.39,6.15"/></g><defs><path id="C" d="M52.91,3.37l4.21,2.29c-0.09-0.05-0.19-0.07-0.3-0.05L52.6,3.32
					C52.72,3.3,52.82,3.32,52.91,3.37z" enable-background="new"/></defs><clipPath id="D"><use overflow="visible" xlink:href="#C"/></clipPath><g clip-path="url(#D)"><path fill="#9d9fa2" d="M56.82,5.61L52.6,3.32c0.07-0.01,0.14-0.01,0.2,0.01l4.21,2.29C56.95,5.61,56.89,5.6,56.82,5.61"/><path fill="#999b9d" d="M57.01,5.62L52.8,3.33c0.03,0.01,0.06,0.02,0.09,0.03l4.21,2.29C57.08,5.64,57.05,5.63,57.01,5.62"/><path fill="#949798" d="M57.11,5.65l-4.21-2.29c0.01,0,0.01,0.01,0.02,0.01l4.21,2.29C57.12,5.66,57.11,5.66,57.11,5.65"/></g><defs><path id="E" d="M55.1,0.25l4.21,2.29c-0.39-0.21-0.84-0.3-1.34-0.23l-4.21-2.29
					C54.26-0.05,54.71,0.04,55.1,0.25z" enable-background="new"/></defs><clipPath id="F"><use overflow="visible" xlink:href="#E"/></clipPath><g clip-path="url(#F)"><path fill="#36484c" d="M57.98,2.32l-4.21-2.29c0.3-0.04,0.6-0.03,0.86,0.04l4.21,2.29C58.57,2.29,58.28,2.27,57.98,2.32"/><path fill="#34464a" d="M58.84,2.36l-4.21-2.29c0.14,0.04,0.27,0.08,0.4,0.15l4.21,2.29C59.11,2.44,58.98,2.4,58.84,2.36"/><path fill="#334448" d="M59.24,2.51l-4.21-2.29c0.03,0.01,0.05,0.03,0.08,0.04l4.21,2.29C59.29,2.53,59.26,2.52,59.24,2.51"/></g><defs><path id="G" d="M40.56,32.03l-4.21-2.29c0.24-0.03,0.44-0.28,0.44-0.54L41,31.49
					C41,31.75,40.8,32,40.56,32.03z" enable-background="new"/></defs><clipPath id="H"><use overflow="visible" xlink:href="#G"/></clipPath><g clip-path="url(#H)"><path fill="#9d9fa2" d="M40.56,32.03l-4.21-2.29c0.04-0.01,0.08-0.02,0.12-0.04l4.21,2.29C40.65,32.01,40.6,32.02,40.56,32.03"/><path fill="#999b9d" d="M40.69,31.99l-4.21-2.29c0.02-0.01,0.05-0.03,0.07-0.04l4.21,2.29C40.73,31.97,40.71,31.98,40.69,31.99"/><path fill="#949798" d="M40.76,31.95l-4.21-2.29c0.02-0.01,0.04-0.03,0.05-0.04l4.21,2.29C40.79,31.92,40.77,31.94,40.76,31.95"/><path fill="#8f9393" d="M40.81,31.91l-4.21-2.29c0.02-0.01,0.03-0.03,0.05-0.05l4.21,2.29C40.84,31.88,40.83,31.89,40.81,31.91"/><path fill="#8c8e8e" d="M40.85,31.86l-4.21-2.29c0.01-0.02,0.03-0.03,0.04-0.05l4.21,2.29C40.88,31.83,40.87,31.85,40.85,31.86"/><path fill="#868889" d="M40.9,31.81l-4.21-2.29c0.01-0.02,0.03-0.04,0.04-0.06l4.21,2.29C40.92,31.77,40.91,31.79,40.9,31.81"/><path fill="#818484" d="M40.93,31.75l-4.21-2.29c0.01-0.02,0.02-0.05,0.03-0.08l4.21,2.29C40.96,31.7,40.95,31.73,40.93,31.75"/><path fill="#7d7f80" d="M40.97,31.68l-4.21-2.29c0.02-0.06,0.03-0.12,0.03-0.19L41,31.49C41,31.55,40.99,31.62,40.97,31.68"/></g><polygon fill="#7b7d7e" points="46.41 30.73 42.19 28.44 42.21 18.33 46.43 20.62"/><defs><path id="I" d="M42.01,17.96l4.21,2.29c0.12,0.07,0.2,0.2,0.2,0.37l-4.21-2.29
					C42.21,18.17,42.13,18.03,42.01,17.96z" enable-background="new"/></defs><clipPath id="J"><use overflow="visible" xlink:href="#I"/></clipPath><g clip-path="url(#J)"><path fill="#7d7f80" d="M46.43,20.62l-4.21-2.29c0-0.17-0.08-0.3-0.2-0.37l4.21,2.29C46.34,20.32,46.43,20.46,46.43,20.62"/></g><defs><path id="K" d="M42.01,17.96l4.21,2.29c-0.07-0.04-0.15-0.05-0.23-0.04l-4.21-2.29
					C41.86,17.91,41.94,17.93,42.01,17.96z" enable-background="new"/></defs><clipPath id="L"><use overflow="visible" xlink:href="#K"/></clipPath><g clip-path="url(#L)"><path fill="#a68f57" d="M45.99,20.21l-4.21-2.29c0.05-0.01,0.1,0,0.15,0.01l4.21,2.29C46.09,20.21,46.04,20.21,45.99,20.21"/><path fill="#a18b54" d="M46.14,20.22l-4.21-2.29c0.02,0.01,0.05,0.01,0.07,0.03l4.21,2.29C46.19,20.24,46.16,20.23,46.14,20.22"/><path fill="#9c8753" d="M46.21,20.25l-4.21-2.29c0,0,0.01,0,0.01,0.01l4.21,2.29C46.22,20.25,46.21,20.25,46.21,20.25"/></g><polygon fill="#abadad" points="38.46 32.32 34.24 30.03 36.35 29.74 40.56 32.03"/><defs><path id="M" d="M38.23,32.28l-4.21-2.29c0.07,0.04,0.15,0.05,0.23,0.04l4.21,2.29
					C38.37,32.34,38.29,32.32,38.23,32.28z" enable-background="new"/></defs><clipPath id="N"><use overflow="visible" xlink:href="#M"/></clipPath><g clip-path="url(#N)"><path fill="#949798" d="M38.23,32.28l-4.21-2.29c0,0,0.01,0,0.01,0.01l4.21,2.29C38.24,32.29,38.23,32.29,38.23,32.28"/><path fill="#999b9d" d="M38.24,32.29L34.03,30c0.02,0.01,0.04,0.02,0.07,0.03l4.21,2.29C38.29,32.31,38.26,32.3,38.24,32.29"/><path fill="#9d9fa2" d="M38.31,32.32l-4.21-2.29c0.05,0.01,0.1,0.02,0.15,0.01l4.21,2.29C38.41,32.33,38.36,32.33,38.31,32.32"/></g><defs><path id="O" d="M38.23,32.28l-4.21-2.29c-0.12-0.07-0.2-0.21-0.2-0.38l4.21,2.29
					C38.02,32.08,38.1,32.22,38.23,32.28z" enable-background="new"/></defs><clipPath id="P"><use overflow="visible" xlink:href="#O"/></clipPath><g clip-path="url(#P)"><path fill="#245a71" d="M38.23,32.28l-4.21-2.29c-0.12-0.07-0.2-0.21-0.2-0.38l4.21,2.29C38.02,32.08,38.1,32.22,38.23,32.28"/></g><polygon fill="#b0995d" points="43.89 20.51 39.68 18.22 41.77 17.92 45.99 20.21"/><polygon fill="#817044" points="43.43 31.15 39.21 28.85 39.23 18.75 43.45 21.04"/><defs><path id="Q" d="M43.45,21.04l-4.21-2.29c0-0.26,0.2-0.5,0.45-0.53l4.21,2.29
					C43.65,20.54,43.45,20.79,43.45,21.04z" enable-background="new"/></defs><clipPath id="R"><use overflow="visible" xlink:href="#Q"/></clipPath><g clip-path="url(#R)"><path fill="#837146" d="M43.45,21.04l-4.21-2.29c0-0.06,0.01-0.12,0.03-0.18l4.21,2.29C43.46,20.92,43.45,20.98,43.45,21.04"/><path fill="#887547" d="M43.48,20.86l-4.21-2.29c0.01-0.03,0.02-0.05,0.03-0.07l4.21,2.29C43.5,20.81,43.49,20.84,43.48,20.86"/><path fill="#8d7b4a" d="M43.51,20.79L39.3,18.5c0.01-0.02,0.02-0.04,0.04-0.06l4.21,2.29C43.54,20.75,43.53,20.77,43.51,20.79"/><path fill="#927e4d" d="M43.55,20.73l-4.21-2.29c0.01-0.02,0.03-0.03,0.04-0.05l4.21,2.29C43.58,20.7,43.56,20.71,43.55,20.73"/><path fill="#97824f" d="M43.59,20.68l-4.21-2.29c0.01-0.02,0.03-0.03,0.05-0.05l4.21,2.29C43.62,20.65,43.61,20.66,43.59,20.68"/><path fill="#9c8753" d="M43.64,20.63l-4.21-2.29c0.02-0.02,0.04-0.03,0.05-0.04l4.21,2.29C43.67,20.6,43.65,20.62,43.64,20.63"/><path fill="#a18b54" d="M43.69,20.59l-4.21-2.29c0.02-0.02,0.05-0.03,0.07-0.04l4.21,2.29C43.74,20.56,43.71,20.57,43.69,20.59"/><path fill="#a68f57" d="M43.76,20.55l-4.21-2.29c0.04-0.02,0.08-0.03,0.13-0.04l4.21,2.29C43.85,20.52,43.81,20.53,43.76,20.55"/></g><path fill="#dbbd73" d="M45.99,20.21c0.24-0.03,0.44,0.15,0.44,0.41l-0.02,10.1c0,0.26-0.19,0.51-0.44,0.54l-2.1,0.29
				c-0.24,0.03-0.44-0.15-0.44-0.42l0.02-10.1c0-0.26,0.2-0.5,0.45-0.53L45.99,20.21z"/><defs><path id="S" d="M35.15,32.79l-4.21-2.29c0.24-0.03,0.44-0.28,0.45-0.54l4.21,2.29
					C35.59,32.51,35.39,32.76,35.15,32.79z" enable-background="new"/></defs><clipPath id="T"><use overflow="visible" xlink:href="#S"/></clipPath><g clip-path="url(#T)"><path fill="#9d9fa2" d="M35.15,32.79l-4.21-2.29c0.04-0.01,0.09-0.02,0.13-0.04l4.21,2.29C35.24,32.77,35.19,32.78,35.15,32.79"/><path fill="#999b9d" d="M35.28,32.75l-4.21-2.29c0.03-0.01,0.05-0.03,0.07-0.04l4.21,2.29C35.33,32.73,35.3,32.74,35.28,32.75"/><path fill="#949798" d="M35.35,32.71l-4.21-2.29c0.02-0.01,0.04-0.03,0.05-0.04l4.21,2.29C35.39,32.68,35.37,32.7,35.35,32.71"/><path fill="#8f9393" d="M35.4,32.67l-4.21-2.29c0.02-0.01,0.03-0.03,0.05-0.05l4.21,2.29C35.44,32.64,35.42,32.65,35.4,32.67"/><path fill="#8c8e8e" d="M35.45,32.62l-4.21-2.29c0.01-0.02,0.03-0.03,0.04-0.05l4.21,2.29C35.48,32.59,35.46,32.6,35.45,32.62"/><path fill="#868889" d="M35.49,32.57l-4.21-2.29c0.01-0.02,0.03-0.04,0.04-0.06l4.21,2.29C35.52,32.53,35.5,32.55,35.49,32.57"/><path fill="#818484" d="M35.53,32.51l-4.21-2.29c0.01-0.02,0.02-0.05,0.03-0.08l4.21,2.29C35.55,32.46,35.54,32.49,35.53,32.51"/><path fill="#7d7f80" d="M35.56,32.44l-4.21-2.29c0.02-0.06,0.03-0.12,0.03-0.19l4.21,2.29C35.59,32.31,35.58,32.38,35.56,32.44"/></g><polygon fill="#7b7d7e" points="41 31.49 36.79 29.2 36.81 17.06 41.02 19.35"/><defs><path id="U" d="M36.6,16.69l4.21,2.29c0.12,0.07,0.21,0.2,0.21,0.37l-4.21-2.29
					C36.81,16.9,36.73,16.76,36.6,16.69z" enable-background="new"/></defs><clipPath id="V"><use overflow="visible" xlink:href="#U"/></clipPath><g clip-path="url(#V)"><path fill="#7d7f80" d="M41.02,19.35l-4.21-2.29c0-0.17-0.08-0.3-0.21-0.37l4.21,2.29C40.94,19.05,41.02,19.19,41.02,19.35"/></g><polygon fill="#abadad" points="33.05 33.08 28.84 30.79 30.93 30.5 35.15 32.79"/><defs><path id="W" d="M36.6,16.69l4.21,2.29c-0.07-0.04-0.15-0.05-0.23-0.04l-4.21-2.29
					C36.46,16.64,36.53,16.66,36.6,16.69z" enable-background="new"/></defs><clipPath id="X"><use overflow="visible" xlink:href="#W"/></clipPath><g clip-path="url(#X)"><path fill="#2f7390" d="M40.59,18.94l-4.21-2.29c0.05-0.01,0.1,0,0.15,0.01l4.21,2.29C40.69,18.94,40.64,18.94,40.59,18.94"/><path fill="#2c6f8b" d="M40.73,18.95l-4.21-2.29c0.02,0.01,0.05,0.01,0.07,0.03l4.21,2.29C40.78,18.97,40.76,18.96,40.73,18.95"/><path fill="#2b6b87" d="M40.8,18.98l-4.21-2.29c0,0,0.01,0,0.01,0.01l4.21,2.29C40.81,18.98,40.81,18.98,40.8,18.98"/></g><defs><path id="Y" d="M32.82,33.04l-4.21-2.29c0.07,0.04,0.15,0.05,0.24,0.04l4.21,2.29
					C32.97,33.1,32.89,33.08,32.82,33.04z" enable-background="new"/></defs><clipPath id="Z"><use overflow="visible" xlink:href="#Y"/></clipPath><g clip-path="url(#Z)"><path fill="#949798" d="M32.82,33.04l-4.21-2.29c0,0,0.01,0,0.01,0.01l4.21,2.29C32.83,33.05,32.82,33.05,32.82,33.04"/><path fill="#999b9d" d="M32.83,33.05l-4.21-2.29c0.02,0.01,0.05,0.02,0.07,0.03l4.21,2.29C32.88,33.07,32.85,33.06,32.83,33.05"/><path fill="#9d9fa2" d="M32.9,33.08l-4.21-2.29c0.05,0.01,0.1,0.02,0.15,0.01l4.21,2.29C33,33.09,32.95,33.09,32.9,33.08"/></g><defs><path id="aa" d="M32.82,33.04l-4.21-2.29c-0.12-0.07-0.21-0.21-0.21-0.38l4.21,2.29
					C32.61,32.84,32.69,32.98,32.82,33.04z" enable-background="new"/></defs><clipPath id="ab"><use overflow="visible" xlink:href="#aa"/></clipPath><g clip-path="url(#ab)"><path fill="#78653a" d="M32.82,33.04l-4.21-2.29c-0.12-0.07-0.21-0.21-0.21-0.38l4.21,2.29C32.61,32.84,32.69,32.98,32.82,33.04"/></g><polygon fill="#23596f" points="38.02 31.91 33.81 29.61 33.83 17.48 38.05 19.77"/><polygon fill="#7b7d7e" points="35.59 32.25 31.38 29.95 31.39 24.59 35.6 26.88"/><defs><path id="ac" d="M31.19,24.22l4.21,2.29c0.12,0.07,0.2,0.2,0.2,0.37l-4.21-2.29
					C31.39,24.42,31.31,24.29,31.19,24.22z" enable-background="new"/></defs><clipPath id="ad"><use overflow="visible" xlink:href="#ac"/></clipPath><g clip-path="url(#ad)"><path fill="#7d7f80" d="M35.6,26.88l-4.21-2.29c0-0.17-0.08-0.3-0.2-0.37l4.21,2.29C35.52,26.58,35.6,26.72,35.6,26.88"/></g><defs><path id="ae" d="M31.19,24.22l4.21,2.29c-0.07-0.04-0.15-0.05-0.24-0.04l-4.21-2.29
					C31.04,24.17,31.12,24.19,31.19,24.22z" enable-background="new"/></defs><clipPath id="af"><use overflow="visible" xlink:href="#ae"/></clipPath><g clip-path="url(#af)"><path fill="#988049" d="M35.16,26.48l-4.21-2.29c0.06-0.01,0.11,0,0.16,0.01l4.21,2.29C35.27,26.47,35.22,26.47,35.16,26.48"/><path fill="#947c46" d="M35.32,26.48l-4.21-2.29c0.02,0.01,0.05,0.02,0.07,0.03l4.21,2.29C35.37,26.5,35.34,26.49,35.32,26.48"/><path fill="#8f7744" d="M35.39,26.51l-4.21-2.29c0,0,0.01,0,0.01,0.01l4.21,2.29C35.4,26.51,35.39,26.51,35.39,26.51"/></g><polygon fill="#307b9a" points="38.48 19.24 34.27 16.95 36.37 16.65 40.59 18.94"/><defs><path id="ag" d="M39.97,16.18l-4.21-2.29c0.03,0.02,0.06,0.02,0.09,0.02c0.08-0.01,0.15-0.08,0.17-0.18
					l4.21,2.29c-0.02,0.1-0.09,0.16-0.17,0.18C40.03,16.2,40,16.2,39.97,16.18z" enable-background="new"/></defs><clipPath id="ah"><use overflow="visible" xlink:href="#ag"/></clipPath><g clip-path="url(#ah)"><polyline fill="#949798" points="39.97 16.18 35.76 13.89 35.76 13.89 39.98 16.18 39.97 16.18"/><path fill="#999b9d" d="M39.98,16.18l-4.21-2.29c0.01,0,0.02,0.01,0.03,0.01L40,16.19C39.99,16.19,39.98,16.19,39.98,16.18"/><path fill="#9d9fa2" d="M40,16.19l-4.21-2.29c0.02,0,0.04,0.01,0.06,0c0.02,0,0.03-0.01,0.05-0.01l4.21,2.29
					c-0.02,0.01-0.03,0.01-0.05,0.02C40.04,16.2,40.02,16.2,40,16.19"/><path fill="#999b9d" d="M40.11,16.18l-4.21-2.29c0.01,0,0.02-0.01,0.03-0.02l4.21,2.29C40.13,16.17,40.12,16.18,40.11,16.18"/><path fill="#949798" d="M40.14,16.17l-4.21-2.29c0.01,0,0.01-0.01,0.02-0.02l4.21,2.29C40.15,16.16,40.15,16.16,40.14,16.17"/><path fill="#8f9393" d="M40.16,16.15l-4.21-2.29c0.01-0.01,0.01-0.01,0.02-0.02l4.21,2.29C40.17,16.14,40.17,16.14,40.16,16.15"/><path fill="#8c8e8e" d="M40.18,16.13l-4.21-2.29c0.01-0.01,0.01-0.01,0.02-0.02l4.21,2.29C40.19,16.12,40.18,16.13,40.18,16.13"/><path fill="#868889" d="M40.19,16.11l-4.21-2.29c0-0.01,0.01-0.01,0.01-0.02l4.21,2.29C40.2,16.1,40.2,16.11,40.19,16.11"/><path fill="#818484" d="M40.21,16.09l-4.21-2.29c0-0.01,0.01-0.02,0.01-0.03l4.21,2.29C40.22,16.07,40.21,16.08,40.21,16.09"/><path fill="#7d7f80" d="M40.22,16.06L36,13.77c0-0.01,0.01-0.03,0.01-0.04l4.21,2.29C40.23,16.04,40.22,16.05,40.22,16.06"/></g><defs><path id="ai" d="M39.97,16.18l-4.21-2.29c-0.01,0-0.01-0.01-0.02-0.01l4.21,2.29
					C39.96,16.18,39.97,16.18,39.97,16.18z" enable-background="new"/></defs><clipPath id="aj"><use overflow="visible" xlink:href="#ai"/></clipPath><g clip-path="url(#aj)"><path fill="#374247" d="M39.97,16.18l-4.21-2.29c-0.01,0-0.01-0.01-0.02-0.01l4.21,2.29C39.96,16.18,39.97,16.18,39.97,16.18"/></g><defs><path id="ak" d="M38.05,19.77l-4.21-2.29c0-0.26,0.19-0.5,0.44-0.53l4.21,2.29
					C38.24,19.27,38.05,19.52,38.05,19.77z" enable-background="new"/></defs><clipPath id="al"><use overflow="visible" xlink:href="#ak"/></clipPath><g clip-path="url(#al)"><path fill="#245a71" d="M38.05,19.77l-4.21-2.29c0-0.06,0.01-0.13,0.03-0.18l4.21,2.29C38.06,19.65,38.05,19.71,38.05,19.77"/><path fill="#255e76" d="M38.08,19.59l-4.21-2.29c0.01-0.03,0.02-0.05,0.03-0.07l4.21,2.29C38.1,19.54,38.09,19.56,38.08,19.59"/><path fill="#27617a" d="M38.11,19.51l-4.21-2.29c0.01-0.02,0.02-0.04,0.04-0.06l4.21,2.29C38.14,19.47,38.12,19.49,38.11,19.51"/><path fill="#28657e" d="M38.15,19.46l-4.21-2.29c0.01-0.02,0.03-0.03,0.04-0.05l4.21,2.29C38.17,19.42,38.16,19.44,38.15,19.46"/><path fill="#296883" d="M38.19,19.41l-4.21-2.29c0.01-0.02,0.03-0.03,0.04-0.05l4.21,2.29C38.22,19.37,38.2,19.39,38.19,19.41"/><path fill="#2b6b87" d="M38.23,19.36l-4.21-2.29c0.02-0.02,0.03-0.03,0.05-0.04l4.21,2.29C38.27,19.33,38.25,19.35,38.23,19.36"/><path fill="#2c6f8b" d="M38.29,19.32l-4.21-2.29c0.02-0.02,0.05-0.03,0.07-0.04l4.21,2.29C38.33,19.29,38.31,19.3,38.29,19.32"/><path fill="#2f7390" d="M38.36,19.28l-4.21-2.29c0.04-0.02,0.08-0.03,0.13-0.04l4.21,2.29C38.44,19.25,38.4,19.26,38.36,19.28"/></g><defs><path id="am" d="M29.74,33.55l-4.21-2.29c0.24-0.03,0.44-0.28,0.44-0.54l4.21,2.29
					C30.18,33.27,29.99,33.51,29.74,33.55z" enable-background="new"/></defs><clipPath id="an"><use overflow="visible" xlink:href="#am"/></clipPath><g clip-path="url(#an)"><path fill="#9d9fa2" d="M29.74,33.55l-4.21-2.29c0.04-0.01,0.09-0.02,0.13-0.04l4.21,2.29C29.83,33.53,29.79,33.54,29.74,33.55"/><path fill="#999b9d" d="M29.87,33.51l-4.21-2.29c0.02-0.01,0.05-0.02,0.07-0.04l4.21,2.29C29.92,33.49,29.89,33.5,29.87,33.51"/><path fill="#949798" d="M29.94,33.47l-4.21-2.29c0.02-0.01,0.04-0.03,0.05-0.04l4.21,2.29C29.98,33.44,29.96,33.46,29.94,33.47"/><path fill="#8f9393" d="M29.99,33.43l-4.21-2.29c0.02-0.01,0.03-0.03,0.04-0.04l4.21,2.29C30.02,33.4,30.01,33.42,29.99,33.43"/><path fill="#8c8e8e" d="M30.04,33.38l-4.21-2.29c0.01-0.02,0.03-0.03,0.04-0.05l4.21,2.29C30.06,33.35,30.05,33.37,30.04,33.38"/><path fill="#868889" d="M30.08,33.33l-4.21-2.29c0.01-0.02,0.03-0.04,0.04-0.06l4.21,2.29C30.1,33.3,30.09,33.32,30.08,33.33"/><path fill="#818484" d="M30.11,33.28l-4.21-2.29c0.01-0.02,0.02-0.05,0.03-0.07l4.21,2.29C30.14,33.23,30.13,33.25,30.11,33.28"/><path fill="#7d7f80" d="M30.15,33.2l-4.21-2.29c0.02-0.06,0.03-0.13,0.03-0.19l4.21,2.29C30.18,33.07,30.17,33.14,30.15,33.2"/></g><polygon fill="#7f8081" points="40.23 16.02 36.02 13.73 36.42 10.96 40.63 13.26"/><polygon fill="#354045" points="39.96 16.17 35.74 13.88 35.07 13.37 39.28 15.67"/><defs><path id="ao" d="M36.42,10.96c0.01-0.08-0.02-0.14-0.08-0.17l4.21,2.29c0.05,0.03,0.09,0.09,0.08,0.17
					C39.37,12.57,37.68,11.65,36.42,10.96z" enable-background="new"/></defs><clipPath id="ap"><use overflow="visible" xlink:href="#ao"/></clipPath><g clip-path="url(#ap)"><path fill="#7d7f80" d="M40.63,13.26l-4.21-2.29c0.01-0.08-0.02-0.14-0.08-0.17l4.21,2.29C40.61,13.11,40.65,13.18,40.63,13.26"/></g><polygon fill="#a2884e" points="33.06 26.77 28.85 24.48 30.95 24.18 35.16 26.48"/><defs><path id="aq" d="M36.34,10.79l4.21,2.29c-0.03-0.01-0.06-0.02-0.09-0.02l-4.21-2.29
					C36.29,10.77,36.32,10.78,36.34,10.79z" enable-background="new"/></defs><clipPath id="ar"><use overflow="visible" xlink:href="#aq"/></clipPath><g clip-path="url(#ar)"><path fill="#46545a" d="M40.47,13.07l-4.21-2.29c0.02,0,0.04,0,0.06,0l4.21,2.29C40.51,13.07,40.49,13.07,40.47,13.07"/><path fill="#445157" d="M40.53,13.07l-4.21-2.29c0.01,0,0.02,0.01,0.03,0.01l4.21,2.29C40.54,13.08,40.54,13.07,40.53,13.07"/><polyline fill="#404f55" points="40.55 13.08 36.34 10.79 36.34 10.79 40.56 13.08 40.55 13.08"/></g><defs><path id="as" d="M40.41,13.09l-4.21-2.29c0.02-0.01,0.04-0.02,0.06-0.02l4.21,2.29
					C40.45,13.07,40.43,13.08,40.41,13.09z" enable-background="new"/></defs><clipPath id="at"><use overflow="visible" xlink:href="#as"/></clipPath><g clip-path="url(#at)"><polyline fill="#445157" points="40.41 13.09 36.2 10.79 36.21 10.79 40.42 13.08 40.41 13.09"/><path fill="#46545a" d="M40.42,13.08l-4.21-2.29c0.02-0.01,0.03-0.01,0.05-0.01l4.21,2.29C40.45,13.07,40.44,13.07,40.42,13.08"/></g><polygon fill="#766239" points="32.61 32.67 28.4 30.37 28.41 25.01 32.62 27.3"/><g><defs><path id="au" d="M32.62,27.3l-4.21-2.29c0-0.26,0.2-0.5,0.45-0.53l4.21,2.29
					C32.82,26.8,32.62,27.04,32.62,27.3z" enable-background="new"/></defs><clipPath id="av"><use overflow="visible" xlink:href="#au"/></clipPath><g clip-path="url(#av)"><path fill="#78653a" d="M32.62,27.3l-4.21-2.29c0-0.06,0.01-0.13,0.03-0.18l4.21,2.29C32.63,27.18,32.62,27.24,32.62,27.3"/><path fill="#7d693c" d="M32.65,27.12l-4.21-2.29c0.01-0.03,0.02-0.05,0.03-0.07l4.21,2.29C32.67,27.07,32.66,27.09,32.65,27.12"/><path fill="#816d3f" d="M32.69,27.05l-4.21-2.29c0.01-0.02,0.02-0.04,0.04-0.06l4.21,2.29C32.71,27.01,32.7,27.03,32.69,27.05"/><path fill="#866f40" d="M32.72,26.99l-4.21-2.29c0.01-0.02,0.03-0.03,0.04-0.05l4.21,2.29C32.75,26.96,32.73,26.97,32.72,26.99"/><path fill="#8a7342" d="M32.76,26.94l-4.21-2.29c0.01-0.02,0.03-0.03,0.04-0.05l4.21,2.29C32.79,26.91,32.77,26.92,32.76,26.94"/><path fill="#8f7744" d="M32.81,26.89l-4.21-2.29c0.02-0.02,0.04-0.03,0.05-0.04l4.21,2.29C32.84,26.86,32.82,26.88,32.81,26.89"/><path fill="#947c46" d="M32.86,26.85l-4.21-2.29c0.02-0.02,0.05-0.03,0.07-0.04l4.21,2.29C32.91,26.82,32.88,26.84,32.86,26.85"/><path fill="#988049" d="M32.93,26.81l-4.21-2.29c0.04-0.02,0.09-0.03,0.13-0.04l4.21,2.29C33.02,26.78,32.97,26.79,32.93,26.81"/></g></g><polygon fill="#959899" points="34.45 22.16 30.24 19.86 35.07 13.37 39.28 15.67"/><g><defs><path id="aw" d="M29.91,20.06c0.12-0.02,0.24-0.09,0.33-0.2l4.21,2.29c-0.08,0.11-0.21,0.18-0.33,0.2
					C32.72,21.59,31.31,20.83,29.91,20.06z" enable-background="new"/></defs><clipPath id="ax"><use overflow="visible" xlink:href="#aw"/></clipPath><g clip-path="url(#ax)"><path fill="#9d9fa2" d="M33.96,22.35l-4.21-2.29c0.05,0.01,0.1,0.02,0.16,0.01c0.04-0.01,0.09-0.02,0.13-0.04l4.21,2.29
					c-0.04,0.02-0.09,0.03-0.13,0.04C34.07,22.36,34.01,22.36,33.96,22.35"/><path fill="#999b9d" d="M34.25,22.31l-4.21-2.29c0.03-0.01,0.05-0.03,0.08-0.04l4.21,2.29C34.31,22.29,34.28,22.3,34.25,22.31"/><path fill="#949798" d="M34.33,22.27l-4.21-2.29c0.02-0.01,0.04-0.03,0.05-0.04l4.21,2.29C34.37,22.24,34.35,22.26,34.33,22.27"/><path fill="#8f9393" d="M34.39,22.23l-4.21-2.29c0.01-0.01,0.03-0.03,0.04-0.04l4.21,2.29C34.41,22.2,34.4,22.21,34.39,22.23"/><path fill="#8c8e8e" d="M34.43,22.18l-4.21-2.29c0.01-0.01,0.02-0.02,0.02-0.03l4.21,2.29C34.44,22.17,34.44,22.18,34.43,22.18"/></g></g><polygon fill="#abadad" points="27.65 33.84 23.43 31.55 25.53 31.26 29.74 33.55"/><g><defs><path id="ay" d="M29.66,20.02c0.07,0.04,0.15,0.05,0.25,0.04c1.4,0.76,2.81,1.53,4.21,2.29
					c-0.09,0.01-0.17,0-0.25-0.04C32.61,21.62,30.93,20.71,29.66,20.02z" enable-background="new"/></defs><clipPath id="az"><use overflow="visible" xlink:href="#ay"/></clipPath><g clip-path="url(#az)"><path fill="#949798" d="M33.88,22.31l-4.21-2.29c0,0,0.01,0.01,0.01,0.01l4.21,2.29C33.89,22.32,33.88,22.31,33.88,22.31"/><path fill="#999b9d" d="M33.89,22.32l-4.21-2.29c0.02,0.01,0.05,0.02,0.07,0.03l4.21,2.29C33.94,22.34,33.92,22.33,33.89,22.32"/><path fill="#9d9fa2" d="M33.96,22.35l-4.21-2.29c0.05,0.01,0.1,0.02,0.16,0.01c0.04-0.01,0.09-0.02,0.13-0.04l4.21,2.29
					c-0.04,0.02-0.09,0.03-0.13,0.04C34.07,22.36,34.01,22.36,33.96,22.35"/></g></g><polygon fill="#354045" points="38.6 15.16 34.39 12.87 33.77 12.42 37.99 14.71"/><g><defs><path id="aA" d="M33.88,22.31l-4.21-2.29c-0.01,0-0.02-0.01-0.03-0.02l4.21,2.29
					C33.86,22.3,33.87,22.31,33.88,22.31z" enable-background="new"/></defs><clipPath id="aB"><use overflow="visible" xlink:href="#aA"/></clipPath><g clip-path="url(#aB)"><path fill="#374247" d="M33.88,22.31l-4.21-2.29c-0.01,0-0.02-0.01-0.03-0.02l4.21,2.29C33.86,22.3,33.87,22.31,33.88,22.31"/></g></g><polygon fill="#49585f" points="38.03 14.4 33.82 12.1 36.2 10.79 40.41 13.09"/><g><defs><path id="aC" d="M27.41,33.8l-4.21-2.29c0.07,0.04,0.15,0.05,0.24,0.04l4.21,2.29
					C27.56,33.86,27.48,33.84,27.41,33.8z" enable-background="new"/></defs><clipPath id="aD"><use overflow="visible" xlink:href="#aC"/></clipPath><g clip-path="url(#aD)"><path fill="#949798" d="M27.41,33.8l-4.21-2.29c0,0,0.01,0,0.01,0.01l4.21,2.29C27.42,33.81,27.42,33.81,27.41,33.8"/><path fill="#999b9d" d="M27.42,33.81l-4.21-2.29c0.02,0.01,0.05,0.02,0.07,0.03l4.21,2.29C27.47,33.83,27.45,33.82,27.42,33.81"/><path fill="#9d9fa2" d="M27.49,33.84l-4.21-2.29c0.05,0.01,0.1,0.02,0.15,0.01l4.21,2.29C27.59,33.85,27.54,33.85,27.49,33.84"/></g></g><g><defs><path id="aE" d="M37.99,14.71l-4.21-2.29c-0.1-0.07-0.07-0.25,0.05-0.32l4.21,2.29
					C37.92,14.46,37.89,14.64,37.99,14.71z" enable-background="new"/></defs><clipPath id="aF"><use overflow="visible" xlink:href="#aE"/></clipPath><g clip-path="url(#aF)"><path fill="#374247" d="M37.99,14.71l-4.21-2.29c-0.06-0.05-0.08-0.13-0.05-0.21l4.21,2.29C37.91,14.58,37.92,14.67,37.99,14.71"/><path fill="#39454a" d="M37.94,14.51l-4.21-2.29c0-0.01,0.01-0.02,0.01-0.03l4.21,2.29C37.95,14.49,37.94,14.5,37.94,14.51"/><path fill="#3b474d" d="M37.95,14.48l-4.21-2.29c0-0.01,0.01-0.01,0.01-0.02l4.21,2.29C37.96,14.47,37.96,14.47,37.95,14.48"/><path fill="#3d4a4f" d="M37.97,14.46l-4.21-2.29c0-0.01,0.01-0.01,0.01-0.02l4.21,2.29C37.97,14.45,37.97,14.45,37.97,14.46"/><path fill="#3f4c52" d="M37.98,14.44l-4.21-2.29c0.01-0.01,0.01-0.01,0.02-0.02L38,14.42C37.99,14.43,37.99,14.43,37.98,14.44"/><path fill="#404f55" d="M38,14.42l-4.21-2.29c0.01-0.01,0.01-0.01,0.02-0.02l4.21,2.29C38.01,14.41,38,14.42,38,14.42"/><path fill="#445157" d="M38.02,14.41l-4.21-2.29c0.01,0,0.01-0.01,0.02-0.01l4.21,2.29C38.03,14.4,38.02,14.4,38.02,14.41"/></g></g><polygon fill="#424e55" points="34.07 21.24 29.85 18.95 34.39 12.87 38.6 15.16"/><g><defs><path id="aG" d="M27.41,33.8l-4.21-2.29c-0.12-0.07-0.21-0.21-0.21-0.38l4.21,2.29
					C27.2,33.6,27.29,33.74,27.41,33.8z" enable-background="new"/></defs><clipPath id="aH"><use overflow="visible" xlink:href="#aG"/></clipPath><g clip-path="url(#aH)"><path fill="#305f5a" d="M27.41,33.8l-4.21-2.29c-0.12-0.07-0.21-0.21-0.21-0.38l4.21,2.29C27.2,33.6,27.29,33.74,27.41,33.8"/></g></g><polygon fill="#7b7d7e" points="30.18 33.01 25.97 30.72 25.98 21.97 30.2 24.26"/><g><defs><path id="aI" d="M24.34,34.31l-4.21-2.29c0.24-0.03,0.44-0.28,0.44-0.54l4.21,2.29
					C24.77,34.03,24.58,34.27,24.34,34.31z" enable-background="new"/></defs><clipPath id="aJ"><use overflow="visible" xlink:href="#aI"/></clipPath><g clip-path="url(#aJ)"><path fill="#9d9fa2" d="M24.34,34.31l-4.21-2.29c0.04-0.01,0.09-0.02,0.13-0.04l4.21,2.29C24.42,34.29,24.38,34.3,24.34,34.31"/><path fill="#999b9d" d="M24.46,34.27l-4.21-2.29c0.02-0.01,0.05-0.02,0.07-0.04l4.21,2.29C24.51,34.25,24.49,34.26,24.46,34.27"/><path fill="#949798" d="M24.53,34.23l-4.21-2.29c0.02-0.01,0.04-0.03,0.05-0.04l4.21,2.29C24.57,34.2,24.55,34.22,24.53,34.23"/><path fill="#8f9393" d="M24.59,34.19l-4.21-2.29c0.02-0.01,0.03-0.03,0.04-0.04l4.21,2.29C24.62,34.16,24.6,34.18,24.59,34.19"/><path fill="#8c8e8e" d="M24.63,34.14l-4.21-2.29c0.01-0.02,0.03-0.03,0.04-0.05l4.21,2.29C24.66,34.11,24.64,34.13,24.63,34.14"/><path fill="#868889" d="M24.67,34.09l-4.21-2.29c0.01-0.02,0.03-0.04,0.04-0.06l4.21,2.29C24.7,34.06,24.68,34.08,24.67,34.09"/><path fill="#818484" d="M24.71,34.04l-4.21-2.29c0.01-0.02,0.02-0.05,0.03-0.07l4.21,2.29C24.73,33.99,24.72,34.01,24.71,34.04"/><path fill="#7d7f80" d="M24.74,33.96l-4.21-2.29c0.02-0.06,0.03-0.13,0.03-0.19l4.21,2.29C24.77,33.83,24.76,33.9,24.74,33.96"/></g></g><g><defs><path id="aK" d="M25.78,21.59l4.21,2.29c0.12,0.07,0.2,0.21,0.2,0.38l-4.21-2.29
					C25.98,21.8,25.9,21.66,25.78,21.59z" enable-background="new"/></defs><clipPath id="aL"><use overflow="visible" xlink:href="#aK"/></clipPath><g clip-path="url(#aL)"><path fill="#7d7f80" d="M30.2,24.26l-4.21-2.29c0-0.17-0.08-0.31-0.2-0.38l4.21,2.29C30.12,23.95,30.2,24.09,30.2,24.26"/></g></g><g><defs><path id="aM" d="M25.78,21.59l4.21,2.29c-0.07-0.04-0.15-0.05-0.23-0.04l-4.21-2.29
					C25.63,21.54,25.71,21.56,25.78,21.59z" enable-background="new"/></defs><clipPath id="aN"><use overflow="visible" xlink:href="#aM"/></clipPath><g clip-path="url(#aN)"><path fill="#3d7873" d="M29.76,23.85l-4.21-2.29c0.05-0.01,0.1,0,0.15,0.01l4.21,2.29C29.86,23.84,29.81,23.84,29.76,23.85"/><path fill="#3b756f" d="M29.91,23.85l-4.21-2.29c0.02,0.01,0.05,0.01,0.07,0.03l4.21,2.29C29.96,23.87,29.93,23.86,29.91,23.85"/><path fill="#39716c" d="M29.98,23.88l-4.21-2.29c0,0,0.01,0,0.01,0.01l4.21,2.29C29.99,23.88,29.98,23.88,29.98,23.88"/></g></g><polygon fill="#2e5d59" points="27.2 33.43 22.99 31.13 23.01 22.39 27.22 24.68"/><polygon fill="#7b7d7e" points="24.77 33.77 20.56 31.48 20.57 28.14 24.78 30.44"/><polygon fill="#abadad" points="22.23 34.6 18.02 32.31 20.12 32.02 24.34 34.31"/><g><defs><path id="aO" d="M20.37,27.77l4.21,2.29c0.12,0.07,0.2,0.2,0.2,0.37l-4.21-2.29
					C20.57,27.97,20.49,27.84,20.37,27.77z" enable-background="new"/></defs><clipPath id="aP"><use overflow="visible" xlink:href="#aO"/></clipPath><g clip-path="url(#aP)"><path fill="#7d7f80" d="M24.78,30.44l-4.21-2.29c0-0.17-0.08-0.3-0.2-0.37l4.21,2.29C24.7,30.13,24.78,30.27,24.78,30.44"/></g></g><g><defs><path id="aQ" d="M22.01,34.56l-4.21-2.29c0.07,0.04,0.15,0.05,0.23,0.04l4.21,2.29
					C22.15,34.62,22.07,34.6,22.01,34.56z" enable-background="new"/></defs><clipPath id="aR"><use overflow="visible" xlink:href="#aQ"/></clipPath><g clip-path="url(#aR)"><path fill="#949798" d="M22.01,34.56l-4.21-2.29c0,0,0.01,0,0.01,0.01l4.21,2.29C22.01,34.57,22.01,34.57,22.01,34.56"/><path fill="#999b9d" d="M22.02,34.57l-4.21-2.29c0.02,0.01,0.04,0.02,0.07,0.03l4.21,2.29C22.06,34.59,22.04,34.58,22.02,34.57"/><path fill="#9d9fa2" d="M22.09,34.6l-4.21-2.29c0.05,0.01,0.1,0.01,0.15,0.01l4.21,2.29C22.18,34.61,22.13,34.61,22.09,34.6"/></g></g><polygon fill="#41817b" points="27.67 24.14 23.45 21.85 25.55 21.55 29.76 23.85"/><g><defs><path id="aS" d="M20.37,27.77l4.21,2.29c-0.07-0.04-0.15-0.05-0.24-0.04l-4.21-2.29
					C20.22,27.72,20.3,27.74,20.37,27.77z" enable-background="new"/></defs><clipPath id="aT"><use overflow="visible" xlink:href="#aS"/></clipPath><g clip-path="url(#aT)"><path fill="#93433d" d="M24.34,30.02l-4.21-2.29c0.05-0.01,0.11,0,0.15,0.01l4.21,2.29C24.45,30.02,24.4,30.02,24.34,30.02"/><path fill="#8e423b" d="M24.5,30.03l-4.21-2.29c0.02,0.01,0.05,0.01,0.07,0.03l4.21,2.29C24.55,30.05,24.52,30.04,24.5,30.03"/><path fill="#8a4039" d="M24.57,30.06l-4.21-2.29c0,0,0.01,0,0.01,0.01l4.21,2.29C24.58,30.06,24.57,30.06,24.57,30.06"/></g></g><g><defs><path id="aU" d="M27.22,24.68l-4.21-2.29c0-0.26,0.2-0.51,0.45-0.54l4.21,2.29
					C27.42,24.17,27.22,24.42,27.22,24.68z" enable-background="new"/></defs><clipPath id="aV"><use overflow="visible" xlink:href="#aU"/></clipPath><g clip-path="url(#aV)"><path fill="#305f5a" d="M27.22,24.68l-4.21-2.29c0-0.06,0.01-0.13,0.03-0.19l4.21,2.29C27.23,24.55,27.22,24.62,27.22,24.68"/><path fill="#31635e" d="M27.25,24.49l-4.21-2.29c0.01-0.03,0.02-0.05,0.03-0.08l4.21,2.29C27.27,24.44,27.26,24.47,27.25,24.49"/><path fill="#326661" d="M27.29,24.42l-4.21-2.29c0.01-0.02,0.02-0.04,0.04-0.06l4.21,2.29C27.31,24.38,27.3,24.4,27.29,24.42"/><path fill="#356a65" d="M27.32,24.36l-4.21-2.29c0.01-0.02,0.03-0.03,0.04-0.05l4.21,2.29C27.35,24.33,27.34,24.34,27.32,24.36"/><path fill="#386e68" d="M27.36,24.31l-4.21-2.29c0.01-0.02,0.03-0.03,0.05-0.05l4.21,2.29C27.39,24.28,27.38,24.29,27.36,24.31"/><path fill="#39716c" d="M27.41,24.26l-4.21-2.29c0.02-0.02,0.04-0.03,0.05-0.04l4.21,2.29C27.45,24.23,27.43,24.25,27.41,24.26"/><path fill="#3b756f" d="M27.46,24.22l-4.21-2.29c0.02-0.02,0.05-0.03,0.07-0.04l4.21,2.29C27.51,24.19,27.49,24.2,27.46,24.22"/><path fill="#3d7873" d="M27.54,24.18l-4.21-2.29c0.04-0.02,0.08-0.03,0.13-0.04l4.21,2.29C27.62,24.15,27.58,24.16,27.54,24.18"/></g></g><polygon fill="#abadad" points="18.95 39.44 14.74 37.15 45.02 32.9 49.23 35.19"/><g><defs><path id="aW" d="M22.01,34.56l-4.21-2.29c-0.12-0.07-0.21-0.21-0.21-0.38l4.21,2.29
					C21.8,34.36,21.88,34.5,22.01,34.56z" enable-background="new"/></defs><clipPath id="aX"><use overflow="visible" xlink:href="#aW"/></clipPath><g clip-path="url(#aX)"><path fill="#743631" d="M22.01,34.56l-4.21-2.29c-0.12-0.07-0.21-0.21-0.21-0.38l4.21,2.29C21.8,34.36,21.88,34.5,22.01,34.56"/></g></g><g><defs><path id="aY" d="M18.5,39.37l-4.21-2.29c0.13,0.07,0.28,0.1,0.46,0.07l4.21,2.29
					C18.78,39.47,18.62,39.44,18.5,39.37z" enable-background="new"/></defs><clipPath id="aZ"><use overflow="visible" xlink:href="#aY"/></clipPath><g clip-path="url(#aZ)"><path fill="#949798" d="M18.5,39.37l-4.21-2.29c0.01,0,0.02,0.01,0.02,0.01l4.21,2.29C18.51,39.38,18.5,39.38,18.5,39.37"/><path fill="#999b9d" d="M18.52,39.38l-4.21-2.29c0.04,0.02,0.08,0.04,0.13,0.05l4.21,2.29C18.6,39.42,18.56,39.4,18.52,39.38"/><path fill="#9d9fa2" d="M18.65,39.43l-4.21-2.29c0.09,0.02,0.2,0.03,0.3,0.01l4.21,2.29C18.84,39.46,18.74,39.45,18.65,39.43"/></g></g><polygon fill="#3b7c6c" points="18.95 38.04 14.74 35.75 45.02 31.49 49.24 33.78"/><polygon fill="#354045" points="33.85 22.3 29.64 20 24.54 17.08 28.75 19.38"/><g><defs><path id="ba" d="M18.5,39.37l-4.21-2.29c-0.19-0.1-0.31-0.29-0.31-0.52c0-0.38,0.34-0.75,0.76-0.81
					l4.21,2.29c-0.42,0.06-0.76,0.43-0.76,0.81C18.19,39.08,18.31,39.27,18.5,39.37z" enable-background="new"/></defs><clipPath id="bb"><use overflow="visible" xlink:href="#ba"/></clipPath><g clip-path="url(#bb)"><path fill="#2d5c50" d="M18.5,39.37l-4.21-2.29c-0.19-0.1-0.31-0.29-0.31-0.52c0-0.08,0.02-0.16,0.04-0.24l4.21,2.29
					c-0.03,0.08-0.04,0.16-0.04,0.24C18.19,39.08,18.31,39.27,18.5,39.37"/><path fill="#2e6053" d="M18.23,38.61l-4.21-2.29c0.01-0.04,0.03-0.07,0.05-0.1l4.21,2.29C18.26,38.54,18.25,38.57,18.23,38.61"/><path fill="#306356" d="M18.28,38.51l-4.21-2.29c0.02-0.03,0.03-0.06,0.05-0.09l4.21,2.29C18.31,38.45,18.3,38.48,18.28,38.51"/><path fill="#336759" d="M18.33,38.42l-4.21-2.29c0.02-0.03,0.04-0.05,0.06-0.08l4.21,2.29C18.37,38.37,18.35,38.39,18.33,38.42"/><path fill="#336a5c" d="M18.4,38.34l-4.21-2.29c0.02-0.03,0.05-0.05,0.07-0.08l4.21,2.29C18.44,38.29,18.42,38.32,18.4,38.34"/><path fill="#356e5f" d="M18.47,38.27l-4.21-2.29c0.03-0.03,0.06-0.05,0.09-0.07l4.21,2.29C18.53,38.21,18.5,38.24,18.47,38.27"/><path fill="#367162" d="M18.57,38.19l-4.21-2.29c0.04-0.03,0.09-0.06,0.13-0.08l4.21,2.29C18.65,38.14,18.61,38.16,18.57,38.19"/><path fill="#387465" d="M18.7,38.11l-4.21-2.29c0.08-0.04,0.17-0.06,0.26-0.08l4.21,2.29C18.87,38.05,18.78,38.08,18.7,38.11"/></g></g><path fill="#4a9984" d="M49.24,33.78c0.42-0.06,0.77,0.21,0.77,0.6c0,0.39-0.35,0.75-0.77,0.81l-30.28,4.26
				c-0.42,0.06-0.76-0.2-0.76-0.6c0-0.38,0.34-0.75,0.76-0.81L49.24,33.78z"/><polygon fill="#797b7c" points="34.07 21.24 29.85 18.95 24.78 16.05 28.99 18.34"/><g><defs><path id="bc" d="M24.73,16.02l4.21,2.29c0.02,0.01,0.03,0.02,0.05,0.03l-4.21-2.29
					C24.76,16.04,24.75,16.03,24.73,16.02z" enable-background="new"/></defs><clipPath id="bd"><use overflow="visible" xlink:href="#bc"/></clipPath><g clip-path="url(#bd)"><path fill="#7d7f80" d="M28.99,18.34l-4.21-2.29c-0.01-0.01-0.03-0.02-0.05-0.03l4.21,2.29C28.96,18.32,28.98,18.33,28.99,18.34"/></g></g><polygon fill="#9d4841" points="22.24 30.32 18.03 28.03 20.13 27.73 24.34 30.02"/><polygon fill="#713530" points="21.8 34.19 17.58 31.89 17.59 28.56 21.8 30.85"/><g><defs><path id="be" d="M24.73,16.02l4.21,2.29c-0.07-0.04-0.14-0.05-0.23-0.03c-0.11,0.02-0.22,0.08-0.3,0.18
					l-4.21-2.29c0.08-0.1,0.19-0.16,0.3-0.18C24.59,15.97,24.67,15.98,24.73,16.02z" enable-background="new"/></defs><clipPath id="bf"><use overflow="visible" xlink:href="#be"/></clipPath><g clip-path="url(#bf)"><path fill="#3d4a4f" d="M28.42,18.46l-4.21-2.29c0,0,0.01-0.01,0.01-0.01l4.21,2.29C28.42,18.45,28.42,18.45,28.42,18.46"/><path fill="#3f4c52" d="M28.43,18.44l-4.21-2.29c0.01-0.02,0.03-0.03,0.04-0.04l4.21,2.29C28.46,18.41,28.44,18.43,28.43,18.44"/><path fill="#404f55" d="M28.47,18.4l-4.21-2.29c0.02-0.02,0.03-0.03,0.05-0.04l4.21,2.29C28.51,18.37,28.49,18.38,28.47,18.4"/><path fill="#445157" d="M28.52,18.36l-4.21-2.29c0.02-0.02,0.05-0.03,0.07-0.04l4.21,2.29C28.57,18.33,28.55,18.34,28.52,18.36"/><path fill="#46545a" d="M28.59,18.32l-4.21-2.29c0.04-0.02,0.08-0.03,0.13-0.04c0.06-0.01,0.11-0.01,0.16,0.01l4.21,2.29
					c-0.05-0.01-0.1-0.01-0.16-0.01C28.68,18.28,28.64,18.3,28.59,18.32"/><path fill="#445157" d="M28.88,18.29l-4.21-2.29C24.68,16,24.7,16,24.72,16.01l4.21,2.29C28.92,18.3,28.9,18.29,28.88,18.29"/><polyline fill="#404f55" points="28.94 18.31 24.72 16.01 24.73 16.02 28.95 18.31 28.94 18.31"/></g></g><g><defs><path id="bg" d="M21.8,30.85l-4.21-2.29c0-0.26,0.2-0.5,0.44-0.53l4.21,2.29
					C22,30.35,21.8,30.59,21.8,30.85z" enable-background="new"/></defs><clipPath id="bh"><use overflow="visible" xlink:href="#bg"/></clipPath><g clip-path="url(#bh)"><path fill="#743631" d="M21.8,30.85l-4.21-2.29c0-0.06,0.01-0.13,0.03-0.18l4.21,2.29C21.82,30.73,21.8,30.79,21.8,30.85"/><path fill="#773832" d="M21.84,30.67l-4.21-2.29c0.01-0.03,0.02-0.05,0.03-0.07l4.21,2.29C21.86,30.62,21.85,30.64,21.84,30.67"/><path fill="#7d3a34" d="M21.87,30.6l-4.21-2.29c0.01-0.02,0.02-0.04,0.04-0.06l4.21,2.29C21.89,30.56,21.88,30.58,21.87,30.6"/><path fill="#823c36" d="M21.91,30.54l-4.21-2.29c0.01-0.02,0.03-0.03,0.04-0.05l4.21,2.29C21.93,30.5,21.92,30.52,21.91,30.54"/><path fill="#863e38" d="M21.95,30.49l-4.21-2.29c0.01-0.02,0.03-0.03,0.04-0.05l4.21,2.29C21.97,30.46,21.96,30.47,21.95,30.49"/><path fill="#8a4039" d="M21.99,30.44l-4.21-2.29c0.02-0.02,0.03-0.03,0.05-0.04l4.21,2.29C22.03,30.41,22.01,30.43,21.99,30.44"/><path fill="#8e423b" d="M22.04,30.4l-4.21-2.29c0.02-0.02,0.05-0.03,0.07-0.04l4.21,2.29C22.09,30.37,22.07,30.38,22.04,30.4"/><path fill="#93433d" d="M22.11,30.36l-4.21-2.29c0.04-0.02,0.08-0.03,0.13-0.04l4.21,2.29C22.2,30.33,22.16,30.34,22.11,30.36"/></g></g><path fill="#c25950" d="M24.34,30.02c0.24-0.03,0.44,0.15,0.44,0.41l-0.01,3.33c0,0.26-0.19,0.51-0.44,0.54l-2.1,0.3
				c-0.24,0.03-0.44-0.15-0.44-0.42l0.01-3.33c0-0.26,0.2-0.5,0.44-0.53L24.34,30.02z"/><polygon fill="#999c9d" points="23.61 24.88 19.4 22.58 24.54 17.08 28.75 19.38"/><g><defs><path id="bi" d="M23.07,25.02l-4.21-2.29c0.07,0.04,0.15,0.05,0.23,0.04c0.12-0.02,0.22-0.09,0.31-0.19
					l4.21,2.29c-0.09,0.1-0.19,0.17-0.31,0.19C23.22,25.08,23.14,25.06,23.07,25.02z" enable-background="new"/></defs><clipPath id="bj"><use overflow="visible" xlink:href="#bi"/></clipPath><g clip-path="url(#bj)"><path fill="#949798" d="M23.07,25.02l-4.21-2.29c0,0,0.01,0,0.01,0.01l4.21,2.29C23.08,25.03,23.08,25.03,23.07,25.02"/><path fill="#999b9d" d="M23.09,25.03l-4.21-2.29c0.02,0.01,0.05,0.02,0.07,0.03l4.21,2.29C23.13,25.05,23.11,25.04,23.09,25.03"/><path fill="#9d9fa2" d="M23.16,25.06l-4.21-2.29c0.05,0.01,0.09,0.02,0.15,0.01c0.04-0.01,0.08-0.02,0.12-0.04l4.21,2.29
					c-0.04,0.02-0.08,0.03-0.12,0.04C23.25,25.07,23.2,25.07,23.16,25.06"/><path fill="#999b9d" d="M23.42,25.03l-4.21-2.29c0.02-0.01,0.05-0.03,0.07-0.04l4.21,2.29C23.47,25,23.44,25.02,23.42,25.03"/><path fill="#949798" d="M23.49,24.99l-4.21-2.29c0.02-0.01,0.04-0.03,0.06-0.05l4.21,2.29C23.53,24.96,23.51,24.97,23.49,24.99"/><path fill="#8f9393" d="M23.55,24.94l-4.21-2.29c0.02-0.02,0.04-0.04,0.06-0.06l4.21,2.29C23.59,24.9,23.57,24.92,23.55,24.94"/></g></g><polygon fill="#3a4d52" points="11.42 45.67 7.2 43.37 52.54 37 56.76 39.29"/><polygon fill="#445258" points="22.99 24.29 18.78 22 24.2 16.16 28.42 18.46"/><path fill="#5c6e76" d="M40.47,13.07c0.1-0.01,0.18,0.07,0.16,0.19l-0.4,2.77c-0.02,0.1-0.09,0.16-0.17,0.18
				c-0.04,0.01-0.07,0-0.11-0.03l-0.67-0.5l-4.83,6.49c-0.08,0.11-0.21,0.18-0.33,0.2c-0.1,0.01-0.19,0-0.27-0.06l-5.1-2.92
				l-5.14,5.5c-0.09,0.1-0.19,0.17-0.31,0.19c-0.12,0.02-0.23-0.02-0.31-0.1c-0.08-0.08-0.13-0.19-0.13-0.32
				c0-0.13,0.04-0.25,0.13-0.35l5.42-5.84c0.08-0.1,0.19-0.16,0.3-0.18c0.1-0.01,0.2,0,0.27,0.07l5.07,2.9l4.53-6.08l-0.61-0.45
				c-0.1-0.07-0.07-0.25,0.05-0.32l2.38-1.31C40.43,13.08,40.45,13.07,40.47,13.07z"/><g><defs><path id="bk" d="M23.07,25.02l-4.21-2.29c-0.03-0.02-0.06-0.04-0.08-0.06c-0.08-0.08-0.13-0.19-0.13-0.32
					c0-0.13,0.04-0.25,0.13-0.35l4.21,2.29c-0.08,0.1-0.13,0.23-0.13,0.35c0,0.13,0.04,0.24,0.13,0.32
					C23.02,24.99,23.04,25.01,23.07,25.02z" enable-background="new"/></defs><clipPath id="bl"><use overflow="visible" xlink:href="#bk"/></clipPath><g clip-path="url(#bl)"><path fill="#374247" d="M23.07,25.02l-4.21-2.29c-0.03-0.02-0.06-0.04-0.08-0.06c-0.08-0.08-0.13-0.19-0.13-0.32
					c0-0.07,0.01-0.13,0.03-0.19l4.21,2.29c-0.02,0.06-0.03,0.13-0.03,0.19c0,0.13,0.04,0.24,0.13,0.32
					C23.02,24.99,23.04,25.01,23.07,25.02"/><path fill="#39454a" d="M22.9,24.45l-4.21-2.29c0.01-0.02,0.02-0.05,0.03-0.07l4.21,2.29C22.92,24.41,22.91,24.43,22.9,24.45"/><path fill="#3b474d" d="M22.93,24.38l-4.21-2.29c0.01-0.02,0.02-0.04,0.03-0.06l4.21,2.29C22.96,24.34,22.94,24.36,22.93,24.38"/><path fill="#3d4a4f" d="M22.97,24.33l-4.21-2.29c0.01-0.01,0.02-0.02,0.03-0.03l4.21,2.29C22.98,24.3,22.98,24.32,22.97,24.33"/></g></g><g><defs><path id="bm" d="M11.11,45.61L6.9,43.32c0.09,0.05,0.19,0.07,0.3,0.05l4.21,2.29
					C11.31,45.68,11.2,45.66,11.11,45.61z" enable-background="new"/></defs><clipPath id="bn"><use overflow="visible" xlink:href="#bm"/></clipPath><g clip-path="url(#bn)"><path fill="#334448" d="M11.11,45.61L6.9,43.32c0.01,0,0.01,0.01,0.02,0.01l4.21,2.29C11.13,45.62,11.12,45.62,11.11,45.61"/><path fill="#34464a" d="M11.13,45.62l-4.21-2.29c0.03,0.01,0.06,0.03,0.09,0.03l4.21,2.29C11.19,45.65,11.16,45.64,11.13,45.62"/><path fill="#36484c" d="M11.22,45.66l-4.21-2.29c0.06,0.02,0.13,0.02,0.2,0.01l4.21,2.29C11.35,45.68,11.28,45.67,11.22,45.66"/></g></g><g><defs><path id="bo" d="M11.11,45.61L6.9,43.32c-0.16-0.09-0.27-0.27-0.26-0.48l4.21,2.29
					C10.85,45.35,10.95,45.53,11.11,45.61z" enable-background="new"/></defs><clipPath id="bp"><use overflow="visible" xlink:href="#bo"/></clipPath><g clip-path="url(#bp)"><path fill="#7d7f80" d="M11.11,45.61L6.9,43.32c-0.16-0.09-0.27-0.27-0.26-0.48l4.21,2.29C10.85,45.35,10.95,45.53,11.11,45.61"/></g></g><polygon fill="#abadad" points="11.48 11.98 7.27 9.69 52.6 3.32 56.82 5.61"/><polygon fill="#7b7d7e" points="10.85 45.13 6.64 42.84 6.7 10.39 10.91 12.68"/><g><defs><path id="bq" d="M10.91,12.68L6.7,10.39c0-0.34,0.25-0.65,0.57-0.7l4.21,2.29
					C11.16,12.03,10.91,12.33,10.91,12.68z" enable-background="new"/></defs><clipPath id="br"><use overflow="visible" xlink:href="#bq"/></clipPath><g clip-path="url(#br)"><path fill="#7d7f80" d="M10.91,12.68L6.7,10.39c0-0.09,0.02-0.17,0.04-0.25l4.21,2.29C10.93,12.51,10.91,12.59,10.91,12.68"/><path fill="#818484" d="M10.95,12.43l-4.21-2.29c0.01-0.03,0.03-0.06,0.04-0.09L11,12.34C10.98,12.37,10.97,12.4,10.95,12.43"/><path fill="#868889" d="M11,12.34l-4.21-2.29c0.01-0.03,0.03-0.05,0.05-0.07l4.21,2.29C11.03,12.29,11.01,12.31,11,12.34"/><path fill="#8c8e8e" d="M11.04,12.26L6.83,9.97c0.02-0.02,0.03-0.04,0.05-0.06l4.21,2.29C11.08,12.22,11.06,12.24,11.04,12.26"/><path fill="#8f9393" d="M11.09,12.2L6.88,9.91C6.9,9.89,6.92,9.87,6.94,9.85l4.21,2.29C11.13,12.16,11.11,12.18,11.09,12.2"/><path fill="#949798" d="M11.15,12.14L6.94,9.85C6.96,9.83,6.98,9.81,7,9.79l4.21,2.29C11.19,12.1,11.17,12.12,11.15,12.14"/><path fill="#999b9d" d="M11.22,12.09L7,9.79C7.03,9.77,7.06,9.76,7.1,9.74l4.21,2.29C11.28,12.05,11.25,12.07,11.22,12.09"/><path fill="#9d9fa2" d="M11.31,12.03L7.1,9.74C7.15,9.72,7.21,9.7,7.27,9.69l4.21,2.29C11.42,11.99,11.36,12.01,11.31,12.03"/></g></g><path fill="#475f65" d="M57.98,2.32c1.38-0.19,2.5,0.86,2.5,2.35l-0.07,37.24l-52.66,7.4l0.07-37.24c0-1.49,1.12-2.86,2.51-3.05
				L57.98,2.32z M57.33,38.6l0.06-32.45c0-0.34-0.26-0.58-0.57-0.54l-45.34,6.37c-0.32,0.04-0.57,0.35-0.57,0.7l-0.06,32.45
				c0,0.34,0.25,0.58,0.57,0.54l45.34-6.37C57.07,39.25,57.33,38.93,57.33,38.6"/><path fill="#3896be" d="M40.59,18.94c0.24-0.03,0.44,0.15,0.44,0.41L41,31.49c0,0.26-0.2,0.51-0.44,0.54l-2.1,0.3
				c-0.24,0.03-0.44-0.15-0.44-0.42l0.02-12.13c0-0.26,0.19-0.5,0.44-0.53L40.59,18.94z"/><path fill="#d2d5d7" d="M56.82,5.61c0.31-0.04,0.57,0.19,0.57,0.54L57.33,38.6c0,0.34-0.26,0.65-0.57,0.7l-45.34,6.37
				c-0.32,0.04-0.57-0.2-0.57-0.54l0.06-32.45c0-0.34,0.25-0.65,0.57-0.7L56.82,5.61z M22.99,24.29c-0.08,0.1-0.13,0.23-0.13,0.35
				c0,0.13,0.04,0.24,0.13,0.32c0.08,0.08,0.19,0.12,0.31,0.1c0.12-0.02,0.22-0.09,0.31-0.19l5.14-5.5l5.1,2.92
				c0.08,0.05,0.17,0.07,0.27,0.06c0.12-0.02,0.24-0.09,0.33-0.2l4.83-6.49l0.67,0.5c0.03,0.02,0.07,0.03,0.11,0.03
				c0.08-0.01,0.15-0.08,0.17-0.18l0.4-2.77c0.02-0.12-0.07-0.2-0.16-0.19c-0.02,0-0.04,0.01-0.06,0.02l-2.38,1.31
				c-0.12,0.06-0.15,0.24-0.05,0.32l0.61,0.45l-4.54,6.08l-5.07-2.9c-0.07-0.06-0.17-0.08-0.27-0.07c-0.11,0.02-0.22,0.08-0.3,0.18
				L22.99,24.29 M49.23,35.19c0.42-0.06,0.77-0.42,0.77-0.81c0-0.38-0.35-0.65-0.77-0.6l-30.28,4.26c-0.42,0.06-0.76,0.43-0.76,0.81
				c0,0.39,0.34,0.66,0.76,0.6L49.23,35.19 M41.02,19.35c0-0.26-0.2-0.44-0.44-0.41l-2.1,0.3c-0.24,0.03-0.44,0.28-0.44,0.53
				l-0.02,12.13c0,0.26,0.19,0.45,0.44,0.42l2.1-0.3C40.8,32,41,31.75,41,31.49L41.02,19.35 M43.45,21.04l-0.02,10.1
				c0,0.26,0.2,0.45,0.44,0.42l2.1-0.29c0.24-0.03,0.44-0.28,0.44-0.54l0.02-10.1c0-0.26-0.19-0.44-0.44-0.41l-2.1,0.29
				C43.65,20.54,43.45,20.79,43.45,21.04 M30.2,24.26c0-0.26-0.19-0.45-0.44-0.42l-2.1,0.29c-0.24,0.03-0.44,0.28-0.45,0.54
				l-0.02,8.74c0,0.26,0.2,0.45,0.44,0.42l2.1-0.29c0.24-0.03,0.44-0.28,0.44-0.54L30.2,24.26 M35.6,26.88
				c0-0.26-0.2-0.44-0.44-0.41l-2.1,0.29c-0.24,0.03-0.44,0.27-0.45,0.53l-0.01,5.36c0,0.26,0.2,0.45,0.44,0.42l2.1-0.29
				c0.24-0.03,0.44-0.28,0.45-0.54L35.6,26.88 M21.8,30.85l-0.01,3.33c0,0.26,0.2,0.45,0.44,0.42l2.1-0.3
				c0.24-0.03,0.44-0.28,0.44-0.54l0.01-3.33c0-0.26-0.19-0.44-0.44-0.41l-2.1,0.3C22,30.35,21.8,30.59,21.8,30.85"/><path fill="#c9a860" d="M35.16,26.48c0.24-0.03,0.44,0.15,0.44,0.41l-0.01,5.36c0,0.26-0.2,0.51-0.45,0.54l-2.1,0.29
				c-0.24,0.03-0.44-0.15-0.44-0.42l0.01-5.36c0-0.26,0.2-0.5,0.45-0.53L35.16,26.48z"/><path fill="#4f9f97" d="M29.76,23.85c0.24-0.03,0.44,0.15,0.44,0.42l-0.02,8.74c0,0.26-0.19,0.51-0.44,0.54l-2.1,0.29
				c-0.24,0.03-0.44-0.15-0.44-0.42l0.02-8.74c0-0.26,0.2-0.51,0.45-0.54L29.76,23.85z"/><polygon fill="#3a4d52" points="10.32 9.01 6.11 6.72 53.76 .02 57.98 2.32"/><polygon fill="#29373a" points="7.75 49.31 3.53 47.01 3.6 9.77 7.82 12.07"/><g><defs><path id="bs" d="M7.82,12.07L3.6,9.77c0-1.49,1.12-2.86,2.51-3.05l4.21,2.29
					C8.94,9.21,7.82,10.58,7.82,12.07z" enable-background="new"/></defs><clipPath id="bt"><use overflow="visible" xlink:href="#bs"/></clipPath><g clip-path="url(#bt)"><path fill="#2b393c" d="M7.82,12.07L3.6,9.77c0-0.37,0.07-0.73,0.19-1.06L8.01,11C7.89,11.34,7.82,11.7,7.82,12.07"/><path fill="#2c3b3f" d="M8.01,11L3.79,8.71c0.05-0.15,0.12-0.29,0.19-0.42l4.21,2.29C8.13,10.72,8.06,10.86,8.01,11"/><path fill="#2e3d41" d="M8.2,10.58L3.98,8.29c0.06-0.11,0.13-0.23,0.2-0.33l4.21,2.29C8.33,10.36,8.26,10.47,8.2,10.58"/><path fill="#2f4043" d="M8.4,10.25L4.19,7.96c0.07-0.1,0.15-0.2,0.23-0.29l4.21,2.29C8.55,10.06,8.47,10.15,8.4,10.25"/><path fill="#314245" d="M8.63,9.97L4.41,7.67c0.08-0.09,0.17-0.18,0.26-0.26l4.21,2.29C8.79,9.79,8.71,9.87,8.63,9.97"/><path fill="#334448" d="M8.88,9.71L4.67,7.41c0.1-0.09,0.2-0.17,0.3-0.24l4.21,2.29C9.08,9.54,8.98,9.62,8.88,9.71"/><path fill="#34464a" d="M9.19,9.47L4.97,7.17C5.1,7.09,5.24,7.01,5.38,6.94l4.21,2.29C9.45,9.3,9.32,9.38,9.19,9.47"/><path fill="#36484c" d="M9.59,9.23L5.38,6.94c0.23-0.11,0.48-0.18,0.73-0.22l4.21,2.29C10.07,9.05,9.82,9.12,9.59,9.23"/></g></g></g></svg>