<svg xmlns="http://www.w3.org/2000/svg" viewBox="0 0 50 50"><path d="M44.5,28.5A3.49364,3.49364,0,0,0,41.1632,31H38.739a14.90489,14.90489,0,0,0,0-12h2.4242a3.5,3.5,0,1,0,0-2H37.6666a15.05545,15.05545,0,0,0-1.3915-1.8611l4.5727-4.5727A3.45528,3.45528,0,0,0,42.5,11,3.5,3.5,0,1,0,39,7.5a3.45528,3.45528,0,0,0,.4338,1.6522l-4.5727,4.5727A15.05545,15.05545,0,0,0,33,12.3334V8.8368a3.5,3.5,0,1,0-2,0V11.261a14.90489,14.90489,0,0,0-12,0V8.8368a3.5,3.5,0,1,0-2,0v3.4966a15.05545,15.05545,0,0,0-1.8611,1.3915L10.5662,9.1522A3.45528,3.45528,0,0,0,11,7.5,3.5,3.5,0,1,0,7.5,11a3.45528,3.45528,0,0,0,1.6522-.4338l4.5727,4.5727A15.05545,15.05545,0,0,0,12.3334,17H8.8368a3.5,3.5,0,1,0,0,2H11.261a14.90489,14.90489,0,0,0,0,12H8.8368a3.5,3.5,0,1,0,0,2h3.4966a15.05545,15.05545,0,0,0,1.3915,1.8611L9.1522,39.4338A3.45528,3.45528,0,0,0,7.5,39,3.5,3.5,0,1,0,11,42.5a3.45528,3.45528,0,0,0-.4338-1.6522l4.5727-4.5727A15.05545,15.05545,0,0,0,17,37.6666v3.4966a3.5,3.5,0,1,0,2,0V38.739a14.90489,14.90489,0,0,0,12,0v2.4242a3.5,3.5,0,1,0,2,0V37.6666a15.05545,15.05545,0,0,0,1.8611-1.3915l4.5727,4.5727A3.45528,3.45528,0,0,0,39,42.5,3.5,3.5,0,1,0,42.5,39a3.45528,3.45528,0,0,0-1.6522.4338l-4.5727-4.5727A15.05545,15.05545,0,0,0,37.6666,33h3.4966A3.49262,3.49262,0,1,0,44.5,28.5Zm0-12A1.5,1.5,0,1,1,43,18,1.5017,1.5017,0,0,1,44.5,16.5Zm-14-11A1.5,1.5,0,1,1,32,7,1.5017,1.5017,0,0,1,30.5,5.5Zm-14,0A1.5,1.5,0,1,1,18,7,1.5017,1.5017,0,0,1,16.5,5.5Zm-11,14A1.5,1.5,0,1,1,7,18,1.5017,1.5017,0,0,1,5.5,19.5Zm0,14A1.5,1.5,0,1,1,7,32,1.5017,1.5017,0,0,1,5.5,33.5Zm14,11A1.5,1.5,0,1,1,18,43,1.5017,1.5017,0,0,1,19.5,44.5Zm14,0A1.5,1.5,0,1,1,32,43,1.5017,1.5017,0,0,1,33.5,44.5ZM42.5,6a1.5,1.5,0,1,1-1.0579,2.562l-.0017-.0024-.0024-.0017A1.499,1.499,0,0,1,42.5,6ZM6,7.5A1.5,1.5,0,1,1,7.5,9,1.5017,1.5017,0,0,1,6,7.5ZM7.5,44A1.5,1.5,0,1,1,9,42.5,1.5017,1.5017,0,0,1,7.5,44ZM12,25A13,13,0,1,1,25,38,13.015,13.015,0,0,1,12,25ZM44,42.5A1.5,1.5,0,1,1,42.5,41,1.5017,1.5017,0,0,1,44,42.5Zm.5-9A1.5,1.5,0,1,1,46,32,1.5017,1.5017,0,0,1,44.5,33.5Z"/><path d="M33.4473,21.1055l-8-4a1.00077,1.00077,0,0,0-.8946,0l-8,4a1.00019,1.00019,0,0,0,0,1.789L19,24.1182V30a1.00151,1.00151,0,0,0,.375.7813A8.99236,8.99236,0,0,0,25,32.9893a8.99236,8.99236,0,0,0,5.625-2.208A1.00151,1.00151,0,0,0,31,30V24.1182l1-.5V25a1,1,0,0,0,2,0V22A1.00043,1.00043,0,0,0,33.4473,21.1055ZM25,19.1182,30.7646,22,25,24.8818,19.2363,22Zm4,10.3896a6.07442,6.07442,0,0,1-8,0V25.1182l3.5527,1.7763a1.001,1.001,0,0,0,.8946,0L29,25.1182Z"/></svg>