<svg xmlns="http://www.w3.org/2000/svg" id="Layer_1" x="0" y="0" version="1.1" viewBox="0 0 100 100" xml:space="preserve"><path fill="#a35bb4" d="M2 2h96v96H2z"/><path fill="#76418f" d="M68.877 32.767h-9c-.55 0-1 .44-1 1v14.3l-3.63-3.63a.983.983 0 0 0-.75-.34h-8.99l-18.79-18.79-.01-.01c-.18-.18-.43-.3-.71-.3-.55 0-1 .45-1 1v48c0 .27.11.5.27.68l.02.02.02.02L48.59 98H98V61.492L69.637 33.137a.983.983 0 0 0-.76-.37z"/><path fill="#fff" d="M74 73h-4.124V33.766c0-.56-.45-1-1-1h-9c-.55 0-1 .44-1 1V73h-3.38V45.096c0-.55-.44-1-1-1h-9c-.55 0-1 .45-1 1V73h-3.37V53.266c0-.56-.45-1-1-1h-9c-.55 0-1 .44-1 1V73H27V26a1 1 0 1 0-2 0v48a1 1 0 0 0 1 1h48a1 1 0 1 0 0-2z"/></svg>